# xmcd CD database file
#
# Track frame offsets:
#	150
#	13149
#	30958
#	45486
#	60350
#	83361
#	98254
#	110567
#	123163
#	134256
#	159544
#	171252
#	185675
#	197060
#	216907
#	231890
#	247259
#	262403
#	275655
#	287042
#
# Disc length: 4119 seconds
#
# Revision: 1
# Processed by: cddbd v1.5.1PL2 Copyright (c) Steve Scherf et al.
# Submitted via: CDex 1.51
#
DISCID=1b101514
DTITLE=McGuffey Lane - McGuffey Lane (1980)/Aqua Dreams (1981)
DYEAR=2006
DGENRE=Country
TTITLE0=People Like You
TTITLE1=Long Time Lovin' You
TTITLE2=Ain't No One (To Love You Like I Do)
TTITLE3=Let Me Take You To The Rodeo
TTITLE4=Green Country Mountains
TTITLE5=Stagecoach
TTITLE6=Music Man
TTITLE7=Breakaway
TTITLE8=Lady Autumn
TTITLE9=Stay In Love With You
TTITLE10=A New Beginning
TTITLE11=It Comes From The Heart
TTITLE12=Dream About You
TTITLE13=Tennessee
TTITLE14=Don't You Think About Me (When I'm Gone)
TTITLE15=Start It All Over
TTITLE16=Fair Weather Friends
TTITLE17=Fallin' Timber
TTITLE18=Bar Of Rags (Black Mountain Rag/Tiger Rag/12th Street Rag)
TTITLE19=Outlaw Rider
EXTD=YEAR: 2006
EXTT0=
EXTT1=
EXTT2=
EXTT3=
EXTT4=
EXTT5=
EXTT6=
EXTT7=
EXTT8=
EXTT9=
EXTT10=
EXTT11=
EXTT12=
EXTT13=
EXTT14=
EXTT15=
EXTT16=
EXTT17=
EXTT18=
EXTT19=
PLAYORDER=
